<?xml version="1.0" standalone="no"?>
<!DOCTYPE svg PUBLIC "-//W3C//DTD SVG 20010904//EN"
 "http://www.w3.org/TR/2001/REC-SVG-20010904/DTD/svg10.dtd">
<svg version="1.0" xmlns="http://www.w3.org/2000/svg"
 width="789.000000pt" height="789.000000pt" viewBox="0 0 789.000000 789.000000"
 preserveAspectRatio="xMidYMid meet">
<metadata>
Created by potrace 1.11, written by Peter Selinger 2001-2013
</metadata>
<g transform="translate(0.000000,789.000000) scale(0.100000,-0.100000)"
fill="#000000" stroke="none">
<path d="M2340 5483 c-74 -6 -171 -18 -215 -26 -758 -137 -1298 -750 -1546
-1752 -38 -154 -56 -240 -69 -325 -48 -320 -67 -525 -76 -826 l-7 -231 679 -5
c439 -3 683 -2 692 5 8 6 12 37 12 86 0 73 4 110 36 361 16 127 21 154 60 315
67 280 182 510 327 658 98 99 177 148 311 191 l75 25 59 -20 c235 -79 459
-297 869 -844 225 -300 320 -413 508 -601 339 -340 599 -497 950 -574 80 -17
142 -23 310 -26 116 -2 220 -6 232 -9 29 -7 291 12 363 26 107 20 196 41 250
59 674 217 1145 855 1359 1840 11 52 27 140 36 195 8 55 18 114 20 130 22 127
46 444 52 668 l6 267 -681 0 c-539 0 -682 -3 -682 -12 -2 -79 -43 -455 -61
-553 -90 -488 -248 -796 -498 -970 -61 -42 -162 -87 -227 -100 -65 -13 -236
79 -395 211 -130 108 -333 332 -477 524 -271 363 -315 419 -470 593 -342 382
-661 601 -1009 693 -167 44 -481 55 -793 27z"/>
</g>
</svg>
